<svg width="21" height="21" viewBox="0 0 21 21" fill="none" xmlns="http://www.w3.org/2000/svg">
<path d="M3.35812 0.732422C1.78223 0.732422 0.500977 2.01367 0.500977 3.58956V17.8753C0.500977 19.4512 1.78223 20.7324 3.35812 20.7324H17.6438C19.2197 20.7324 20.501 19.4512 20.501 17.8753V3.58956C20.501 2.01367 19.2197 0.732422 17.6438 0.732422H3.35812ZM16.6215 4.48242L11.9876 9.77707L17.4385 16.9824H13.1706L9.83133 12.6119L6.00544 16.9824H3.88491L8.84026 11.3172L3.61258 4.48242H7.98758L11.0099 8.47796L14.501 4.48242H16.6215ZM14.934 15.7146L7.34919 5.68331H6.0858L13.7554 15.7146H14.9295H14.934Z" fill="white"/>
</svg>
